# xmcd
#
# Track frame offsets:
#	150
#	15580
#	25627
#	38047
#	52380
#	67047
#	76667
#	91225
#	103367
#	117125
#	127427
#	140815
#	152155
#	169592
#	182800
#
# Disc length: 2562
#
# Revision: 1
# Processed by: cddbd v1.5.1PL0 Copyright (c) Steve Scherf et al.
# Submitted via: EasyCDDAExtractor 5.0.5.1
# Normalized: r0:DSETVAR1
#
DISCID=d00a000f
DTITLE=Various Artist - Country Party
DYEAR=1992
DGENRE=Country
TTITLE0=Billy Ray Cyrus - Achy Breaky Heart
TTITLE1=Charlie Pride - Is Anyone Going To And Antone
TTITLE2=Dolly Parton - 9 to 5
TTITLE3=John Denver - Take Me Home Country Road
TTITLE4=Don Gibson - I Can't Stop Loving You
TTITLE5=Ned Miller - From A Jack To A King
TTITLE6=Jeanie C Riley - Harper Valley PTA
TTITLE7=Johnny Paycheck - Take This Job and Shove It
TTITLE8=Olivia Newton-John - Let Me Be There
TTITLE9=The Everly Brothers - Bye Bye Love
TTITLE10=Lynn Anderson - Rose Garden
TTITLE11=Hank Locklin - Send Me The Pillow That You Dream On
TTITLE12=Dolly Parton - Real Love
TTITLE13=Charlie Pride - Kiss An Angel Good Morning
TTITLE14=Roger Miller - Chug a Lug
EXTD=
EXTT0=
EXTT1=
EXTT2=
EXTT3=
EXTT4=
EXTT5=
EXTT6=
EXTT7=
EXTT8=
EXTT9=
EXTT10=
EXTT11=
EXTT12=
EXTT13=
EXTT14=
PLAYORDER=
